<svg width="558" height="93" viewBox="0 0 558 93" fill="none" xmlns="http://www.w3.org/2000/svg">
<path d="M81.1658 27.6922C80.8923 27.3681 80.8541 26.9065 81.069 26.541C81.4154 25.952 81.7366 25.404 82.0595 24.8528C82.3729 24.3177 82.1287 23.6292 81.5484 23.4108C71.1265 19.4886 60.9272 15.5723 50.6427 11.7552C50.2332 11.6032 49.7724 11.7349 49.5032 12.079C49.1511 12.5291 48.85 12.9126 48.5603 13.3036C42.5836 21.3551 35.9008 28.7685 27.8731 34.9583C22.377 39.1976 16.4271 42.6682 9.71743 44.793C7.2308 45.5814 4.6902 46.1139 1.8994 46.3889C1.09734 46.4679 0.673099 47.403 1.16664 48.0402C9.16303 58.3635 17.0268 68.5147 25.0319 78.8449C25.3318 79.2319 25.8679 79.345 26.2986 79.1121C28.2805 78.0401 30.1609 77.0259 32.0536 76.003C32.5294 75.7459 33.1281 75.9129 33.3371 76.4118C33.9978 77.989 34.1603 79.6606 34.9462 81.0567C35.1038 81.3367 35.4157 81.5525 35.7306 81.4882V81.4882C50.3306 78.5656 64.3052 73.928 77.3902 66.9127C85.1567 62.7489 92.3007 57.7582 98.3834 51.4231C98.7801 51.0105 99.1321 50.5598 99.4832 50.1089C99.7798 49.7281 99.7728 49.1882 99.4594 48.8211C93.3089 41.6179 87.0937 34.7181 81.1658 27.6922ZM27.8324 74.5134C27.4129 74.7596 26.8763 74.6656 26.5644 74.2923C19.6153 65.9761 12.8365 57.623 5.87898 49.1281C5.42234 48.5706 5.68689 47.7266 6.3807 47.5317C6.62578 47.4628 6.85859 47.3978 7.09179 47.3334C11.737 46.0617 16.045 44.062 20.1782 41.6567C27.982 37.115 34.7215 31.322 40.8864 24.8808C43.8001 21.8347 46.484 18.5821 49.2708 15.424C49.3574 15.3255 49.4454 15.2283 49.5429 15.1214C49.8262 14.8105 50.2739 14.7079 50.6638 14.8655C59.4611 18.4225 68.1335 21.9314 76.991 25.5156C77.5705 25.7501 77.7949 26.4538 77.455 26.9785C64.6877 46.6898 48.3387 62.4814 27.8324 74.5134ZM61.4572 55.1596C62.1274 56.5083 62.8051 57.8672 63.538 59.1883C63.8589 59.7696 64.6097 59.5821 65.1755 59.3089C65.2068 59.2914 65.2411 59.2769 65.271 59.2595C67.0801 58.3017 68.2459 56.1668 67.7951 54.1772C67.7821 54.1203 67.7655 54.0631 67.7465 54.0053C67.6761 53.7915 67.4238 53.7013 67.2205 53.7978V53.7978C65.9696 54.3922 65.0814 54.2077 64.4993 53.2964C64.1574 52.7645 63.9335 52.2893 63.8037 51.846C63.704 51.5104 63.6826 51.1884 63.7279 50.8894C63.7546 50.713 63.856 50.5596 63.9875 50.439C64.0905 50.3445 64.1942 50.2499 64.2963 50.1558C64.5442 49.9284 64.7902 49.6982 65.0328 49.4675C65.1474 49.3584 65.2852 49.2747 65.4398 49.2411C65.805 49.1616 66.206 49.1412 66.6413 49.1806C67.9414 49.3012 69.0953 49.7983 69.9939 50.7211C73.3315 54.1408 70.1775 59.0284 67.3533 61.2607C67.2145 61.3712 67.0354 61.4743 66.8637 61.563C65.074 62.4742 61.6841 62.5338 60.7228 60.5471C60.2227 59.5123 59.7943 58.3308 59.3361 57.2451C59.1574 56.8304 58.9806 56.4179 58.8037 56.0068C58.6272 55.5964 58.7435 55.119 59.0856 54.8316C60.0044 54.0596 60.9005 53.2628 61.7897 52.4545C61.9994 52.2639 62.2935 52.2135 62.5737 52.2558V52.2558V52.2558C62.8765 52.2983 62.9491 52.7093 62.6773 52.8493C62.2578 53.0654 61.8883 53.2529 61.446 53.4741C61.077 53.6586 60.9282 54.1081 61.114 54.4764C61.2293 54.7049 61.3436 54.9326 61.4572 55.1596ZM90.9364 54.882C76.1871 66.8284 59.0748 73.787 40.4326 77.4944C39.5571 77.6674 38.6733 77.7977 37.6924 77.9479C37.2082 78.0221 36.7397 77.7374 36.5855 77.2725C36.2884 76.3765 35.998 75.4984 35.6971 74.589C35.5584 74.1699 35.7109 73.7094 36.0723 73.456C37.3418 72.566 38.5916 71.6905 39.836 70.8188C40.1057 70.6299 40.4553 70.5788 40.7484 70.7288C41.8022 71.268 42.4547 72.1378 43.0505 73.1313C43.2509 73.4654 43.6207 73.6704 44.01 73.6538C44.2834 73.6422 44.558 73.6214 44.8181 73.5516C55.3132 70.7234 65.568 67.2731 75.178 62.1996C79.4665 59.9367 83.4953 57.3105 86.9763 53.9461C87.2925 53.6392 87.5895 53.3144 87.874 53.0044C88.0942 52.7646 88.187 52.4311 88.1252 52.1113C87.4915 48.83 87.8282 48.4559 88.8222 47.4039C89.1198 47.0889 89.1664 46.6168 88.9462 46.2435C85.9266 41.1236 82.8415 36.0204 78.8048 31.3143C78.5072 30.9673 78.4752 30.4633 78.7331 30.0857C78.7631 30.0419 78.7935 29.9974 78.8243 29.9523C79.1753 29.4386 79.9077 29.365 80.3633 29.7886C80.9942 30.3753 81.568 30.9037 82.0548 31.5008C86.8121 37.3563 91.5304 43.2423 96.2578 49.1225V49.1225C96.4792 49.3941 96.3187 49.8165 96.0781 50.0712C94.4975 51.745 92.7844 53.386 90.9364 54.882Z" fill="white"/>
<path d="M68.6206 34.709C68.9276 34.3056 68.8789 33.7404 68.5577 33.3483C66.7221 31.108 67.202 28.8986 68.4649 26.6525C68.7674 26.1143 68.5622 25.4207 67.9962 25.1742C63.3273 23.1407 58.7389 21.1443 54.0924 19.1206C53.6562 18.9306 53.1493 19.0766 52.8617 19.4557C51.4242 21.3507 49.7311 22.7675 46.9882 22.398C46.611 22.3471 46.2333 22.4833 46.0041 22.7872C45.8768 22.956 45.7398 23.1245 45.5819 23.2731C42.7458 25.9661 39.9754 28.726 37.0393 31.3115C30.4816 37.0811 23.4017 42.0846 15.0144 45.2155C14.545 45.3907 14.281 45.8816 14.3132 46.3816C14.4432 48.3993 13.4154 49.8664 11.7599 51.0843C11.263 51.4498 11.1444 52.1622 11.5458 52.6307C15.3582 57.0805 19.0888 61.4363 22.7632 65.7242C23.0022 66.0031 23.3769 66.1275 23.7365 66.0524C28.2236 65.1147 29.6712 65.2686 33.1547 67.0331C33.4409 67.178 33.7802 67.1816 34.0676 67.0393C34.591 66.7802 35.0804 66.5412 35.56 66.2845C40.7516 63.5087 45.2834 59.8753 49.5854 55.96C55.1561 50.8937 60.1372 45.3042 64.8974 39.5228C66.1789 37.9664 67.3771 36.3433 68.6206 34.709ZM50.672 49.0582C50.572 49.202 50.4287 49.3488 50.2884 49.4811C48.8241 50.837 45.5819 51.8035 44.0952 50.1511C43.322 49.2907 42.5757 48.269 41.8278 47.3505C41.5079 46.9577 41.1885 46.5684 40.8694 46.1814C40.5473 45.7907 40.0015 45.752 39.5203 45.9095C39.0078 46.0772 38.5461 45.9509 37.4438 45.6239V45.6239C37.2026 45.5509 37.1356 45.2423 37.3241 45.0751C37.6234 44.8096 37.8719 44.588 38.1448 44.3434C38.5212 44.0059 38.561 43.4308 38.2358 43.0437C38.2066 43.009 38.1774 42.9743 38.1483 42.9396C37.3124 41.9485 36.5153 41.03 35.6511 40.1609C35.5566 40.0647 35.1081 40.022 34.9213 40.1083C34.9058 40.1155 34.8901 40.1228 34.8778 40.1347V40.1347C34.7629 40.2408 34.6748 40.5416 34.6017 40.7858C34.5971 40.8011 34.5926 40.8163 34.5881 40.8314C34.5537 40.9455 34.5512 41.0628 34.5808 41.1782V41.1782C34.6032 41.2523 34.6286 41.3366 34.645 41.4296V41.4296C34.6767 41.6025 34.5702 41.7717 34.4005 41.8173C33.5552 42.0443 33.0186 42.186 32.1838 42.4073C32.0126 42.4527 31.8402 42.3462 31.7999 42.1737V42.1737C31.4148 40.5024 32.2283 39.4473 33.0224 38.6843C33.9986 37.7454 35.1525 37.5071 36.3422 38.0056C37.7901 38.6102 38.7559 39.7365 39.6858 40.8454C39.7007 40.8628 39.7082 40.8715 39.7246 40.8904C39.9754 41.1898 40.2277 41.4921 40.4933 41.8148V41.8148C40.5664 41.9021 40.6944 41.9158 40.7911 41.8557C41.3784 41.49 41.9769 41.5773 42.5219 41.6476C42.8458 41.6869 43.1817 41.7276 43.5295 41.684V41.684C43.8345 41.6435 44.0161 42.0219 43.7913 42.2319C43.4525 42.5485 43.1526 42.8258 42.7944 43.1535C42.49 43.4321 42.4708 43.9054 42.7513 44.208C42.9272 44.3977 43.1017 44.5872 43.2742 44.7766C44.3027 45.8943 45.3371 47.0177 46.4134 48.0917C46.8866 48.564 47.5568 48.1818 48.024 47.7662C48.0509 47.7429 48.0762 47.7182 48.1016 47.6935C49.5689 46.2867 50.0869 43.9221 49.0898 42.133C49.0604 42.0813 49.0276 42.0298 48.9925 41.9784C48.8666 41.7935 48.6042 41.7751 48.4345 41.9208V41.9208C47.3986 42.8292 46.4925 42.8902 45.6745 42.1694C45.1953 41.7494 44.8431 41.3526 44.5938 40.9616C44.0266 40.0722 44.1176 39.1145 44.846 38.4285C45.2625 38.0346 45.8521 37.7687 46.5686 37.6379C47.8523 37.4039 49.1002 37.5739 50.2287 38.2178C54.4068 40.6085 52.7558 46.153 50.672 49.0582Z" fill="white"/>
<path d="M124.48 22.376H138.752C142.891 22.376 146.155 23.3787 148.544 25.384C150.976 27.3467 152.192 30.0347 152.192 33.448C152.192 37.3307 150.507 40.3173 147.136 42.408C151.616 44.2 153.856 47.3573 153.856 51.88C153.856 54.44 153.216 56.7227 151.936 58.728C150.656 60.6907 148.864 62.2267 146.56 63.336C144.299 64.4453 141.739 65 138.88 65H124.48V22.376ZM136.576 39.72C138.709 39.72 140.352 39.2293 141.504 38.248C142.699 37.2667 143.296 35.9013 143.296 34.152C143.296 30.9947 141.333 29.416 137.408 29.416H133.376V39.72H136.576ZM137.472 57.896C139.776 57.896 141.568 57.3627 142.848 56.296C144.171 55.2293 144.832 53.8 144.832 52.008C144.832 50.3867 144.277 49.128 143.168 48.232C142.059 47.336 140.459 46.888 138.368 46.888H133.376V57.896H137.472ZM170.262 65.896C166.763 65.896 164.011 64.8293 162.006 62.696C160 60.5627 158.998 57.64 158.998 53.928V32.04H168.022V52.456C168.022 54.2053 168.448 55.5707 169.302 56.552C170.155 57.4907 171.307 57.96 172.758 57.96C174.208 57.96 175.595 57.4907 176.918 56.552C178.283 55.6133 179.414 54.3547 180.31 52.776V32.04H189.334V65H180.31V60.648C179.072 62.312 177.643 63.6133 176.022 64.552C174.443 65.448 172.523 65.896 170.262 65.896ZM206.654 65.96C202.942 65.96 200.019 64.552 197.886 61.736C195.795 58.8773 194.75 54.9093 194.75 49.832C194.75 43.816 196.307 39.208 199.422 36.008C202.579 32.7653 207.059 31.144 212.862 31.144C213.587 31.144 214.675 31.1867 216.126 31.272V18.28H225.022V65H216.254L216.446 60.712H216.19C215.081 62.4187 213.715 63.72 212.094 64.616C210.515 65.512 208.702 65.96 206.654 65.96ZM208.702 58.088C210.067 58.088 211.39 57.512 212.67 56.36C213.95 55.1653 215.102 53.48 216.126 51.304V39.592C214.675 39.208 213.289 39.016 211.966 39.016C209.278 39.016 207.23 39.8907 205.822 41.64C204.457 43.3893 203.774 45.9493 203.774 49.32C203.774 52.0507 204.201 54.2053 205.054 55.784C205.95 57.32 207.166 58.088 208.702 58.088ZM242.696 79.528C238.898 79.528 235.186 79.0373 231.56 78.056L233.288 70.12C237.384 71.3147 240.797 71.912 243.528 71.912C245.704 71.912 247.368 71.5707 248.52 70.888C249.714 70.2053 250.546 69.1387 251.016 67.688C251.528 66.2373 251.826 64.2533 251.912 61.736H251.72C250.525 63.1013 249.138 64.1467 247.56 64.872C245.981 65.5973 244.253 65.96 242.376 65.96C238.621 65.96 235.677 64.552 233.544 61.736C231.453 58.8773 230.408 54.9307 230.408 49.896C230.408 43.7947 231.965 39.144 235.08 35.944C238.237 32.744 242.738 31.144 248.584 31.144C251.954 31.144 255.965 31.656 260.616 32.68C260.701 41.4693 260.744 48.0827 260.744 52.52C260.744 56.488 260.722 59.4747 260.68 61.48C260.594 67.5387 259.058 72.0613 256.072 75.048C253.128 78.0347 248.669 79.528 242.696 79.528ZM244.744 58.088C246.066 58.088 247.325 57.5973 248.52 56.616C249.757 55.6347 250.845 54.248 251.784 52.456L251.72 39.592C250.312 39.208 248.946 39.016 247.624 39.016C244.936 39.016 242.888 39.8907 241.48 41.64C240.114 43.3893 239.432 45.928 239.432 49.256C239.432 52.0293 239.88 54.2053 240.776 55.784C241.714 57.32 243.037 58.088 244.744 58.088ZM283.217 65.96C277.884 65.96 273.681 64.424 270.609 61.352C267.58 58.28 266.065 54.0133 266.065 48.552C266.065 45.0107 266.726 41.9387 268.049 39.336C269.372 36.6907 271.228 34.664 273.617 33.256C276.049 31.848 278.886 31.144 282.129 31.144C286.908 31.144 290.577 32.68 293.137 35.752C295.697 38.824 296.977 43.2613 296.977 49.064C296.977 50.0453 296.956 50.7707 296.913 51.24H275.153C275.58 53.5013 276.561 55.2293 278.097 56.424C279.633 57.576 281.702 58.152 284.305 58.152C285.884 58.152 287.526 57.96 289.233 57.576C290.94 57.1493 292.433 56.5947 293.713 55.912L295.185 63.144C293.478 64.04 291.58 64.7227 289.489 65.192C287.441 65.704 285.35 65.96 283.217 65.96ZM288.337 44.456C288.209 42.6213 287.569 41.1707 286.417 40.104C285.265 38.9947 283.729 38.44 281.809 38.44C279.974 38.44 278.46 38.9733 277.265 40.04C276.113 41.1067 275.388 42.5787 275.089 44.456H288.337ZM314.544 65.96C311.472 65.96 309.082 65.192 307.376 63.656C305.712 62.0773 304.88 59.8587 304.88 57V39.784H299.76V32.04H304.88V25C307.909 24.488 310.896 24.104 313.84 23.848V32.04H322.16V39.784H313.84V55.336C313.84 56.232 314.096 56.9147 314.608 57.384C315.162 57.8533 315.93 58.088 316.912 58.088C318.106 58.088 319.472 57.8107 321.008 57.256L322.992 64.04C320.261 65.32 317.445 65.96 314.544 65.96ZM339.957 22.376H354.229C358.368 22.376 361.632 23.3787 364.021 25.384C366.453 27.3467 367.669 30.0347 367.669 33.448C367.669 37.3307 365.984 40.3173 362.613 42.408C367.093 44.2 369.333 47.3573 369.333 51.88C369.333 54.44 368.693 56.7227 367.413 58.728C366.133 60.6907 364.341 62.2267 362.037 63.336C359.776 64.4453 357.216 65 354.357 65H339.957V22.376ZM352.053 39.72C354.187 39.72 355.829 39.2293 356.981 38.248C358.176 37.2667 358.773 35.9013 358.773 34.152C358.773 30.9947 356.811 29.416 352.885 29.416H348.853V39.72H352.053ZM352.949 57.896C355.253 57.896 357.045 57.3627 358.325 56.296C359.648 55.2293 360.309 53.8 360.309 52.008C360.309 50.3867 359.755 49.128 358.645 48.232C357.536 47.336 355.936 46.888 353.845 46.888H348.853V57.896H352.949ZM390.027 65.96C386.699 65.96 383.755 65.2347 381.195 63.784C378.678 62.3333 376.715 60.3067 375.307 57.704C373.899 55.0587 373.195 52.008 373.195 48.552C373.195 45.096 373.878 42.0667 375.243 39.464C376.651 36.8187 378.614 34.7707 381.131 33.32C383.691 31.8693 386.635 31.144 389.963 31.144C393.291 31.144 396.214 31.8693 398.731 33.32C401.291 34.728 403.254 36.7333 404.619 39.336C406.027 41.9387 406.731 44.9467 406.731 48.36C406.731 51.816 406.027 54.888 404.619 57.576C403.254 60.2213 401.291 62.2907 398.731 63.784C396.214 65.2347 393.312 65.96 390.027 65.96ZM389.963 58.152C392.267 58.152 394.102 57.2773 395.467 55.528C396.875 53.736 397.579 51.3893 397.579 48.488C397.579 45.5867 396.875 43.2827 395.467 41.576C394.102 39.8267 392.267 38.952 389.963 38.952C387.659 38.952 385.803 39.8267 384.395 41.576C383.03 43.2827 382.347 45.5867 382.347 48.488C382.347 51.3893 383.03 53.736 384.395 55.528C385.803 57.2773 387.659 58.152 389.963 58.152ZM412.14 32.04H420.972V37.736C422.337 35.4747 423.916 33.8107 425.708 32.744C427.5 31.6773 429.591 31.144 431.98 31.144C435.521 31.144 438.295 32.2107 440.3 34.344C442.305 36.4347 443.308 39.3573 443.308 43.112V65H434.284V44.52C434.284 42.8133 433.857 41.4907 433.004 40.552C432.151 39.5707 430.999 39.08 429.548 39.08C427.841 39.08 426.22 39.72 424.684 41C423.148 42.28 421.975 43.9013 421.164 45.864V65H412.14V32.04ZM460.664 65.96C456.952 65.96 454.029 64.552 451.896 61.736C449.805 58.8773 448.76 54.9093 448.76 49.832C448.76 43.816 450.317 39.208 453.432 36.008C456.589 32.7653 461.069 31.144 466.872 31.144C467.597 31.144 468.685 31.1867 470.136 31.272V18.28H479.032V65H470.264L470.456 60.712H470.2C469.091 62.4187 467.725 63.72 466.104 64.616C464.525 65.512 462.712 65.96 460.664 65.96ZM462.712 58.088C464.077 58.088 465.4 57.512 466.68 56.36C467.96 55.1653 469.112 53.48 470.136 51.304V39.592C468.685 39.208 467.299 39.016 465.976 39.016C463.288 39.016 461.24 39.8907 459.832 41.64C458.467 43.3893 457.784 45.9493 457.784 49.32C457.784 52.0507 458.211 54.2053 459.064 55.784C459.96 57.32 461.176 58.088 462.712 58.088ZM486.018 18.28H495.042V36.84C496.364 34.8773 497.879 33.448 499.586 32.552C501.292 31.6133 503.255 31.144 505.474 31.144C509.015 31.144 511.788 32.2107 513.794 34.344C515.799 36.4347 516.802 39.3573 516.802 43.112V65H507.778V44.52C507.778 42.8133 507.351 41.4907 506.498 40.552C505.644 39.5707 504.492 39.08 503.042 39.08C501.463 39.08 499.948 39.6347 498.498 40.744C497.09 41.8107 495.938 43.24 495.042 45.032V65H486.018V18.28ZM534.494 65.896C530.995 65.896 528.243 64.8293 526.238 62.696C524.233 60.5627 523.23 57.64 523.23 53.928V32.04H532.254V52.456C532.254 54.2053 532.681 55.5707 533.534 56.552C534.387 57.4907 535.539 57.96 536.99 57.96C538.441 57.96 539.827 57.4907 541.15 56.552C542.515 55.6133 543.646 54.3547 544.542 52.776V32.04H553.566V65H544.542V60.648C543.305 62.312 541.875 63.6133 540.254 64.552C538.675 65.448 536.755 65.896 534.494 65.896Z" fill="white"/>
</svg>
