<svg width="21" height="22" viewBox="0 0 21 22" fill="none" xmlns="http://www.w3.org/2000/svg">
<g id="chat / 24 / Outline">
<path id="Vector" d="M6.125 6.42505C5.95194 6.42505 5.78277 6.47637 5.63888 6.57251C5.49498 6.66866 5.38283 6.80532 5.3166 6.9652C5.25038 7.12509 5.23305 7.30102 5.26681 7.47075C5.30057 7.64049 5.38391 7.7964 5.50628 7.91877C5.62865 8.04114 5.78456 8.12447 5.9543 8.15824C6.12403 8.192 6.29996 8.17467 6.45985 8.10844C6.61973 8.04222 6.75639 7.93007 6.85254 7.78617C6.94868 7.64228 7 7.47311 7 7.30005C7 7.06798 6.90781 6.84542 6.74372 6.68133C6.57962 6.51724 6.35706 6.42505 6.125 6.42505ZM6.125 9.92505C5.95194 9.92505 5.78277 9.97637 5.63888 10.0725C5.49498 10.1687 5.38283 10.3053 5.3166 10.4652C5.25038 10.6251 5.23305 10.801 5.26681 10.9708C5.30057 11.1405 5.38391 11.2964 5.50628 11.4188C5.62865 11.5411 5.78456 11.6245 5.9543 11.6582C6.12403 11.692 6.29996 11.6747 6.45985 11.6084C6.61973 11.5422 6.75639 11.4301 6.85254 11.2862C6.94868 11.1423 7 10.9731 7 10.8C7 10.568 6.90781 10.3454 6.74372 10.1813C6.57962 10.0172 6.35706 9.92505 6.125 9.92505ZM14.875 9.92505H9.625C9.39293 9.92505 9.17037 10.0172 9.00628 10.1813C8.84219 10.3454 8.75 10.568 8.75 10.8C8.75 11.0321 8.84219 11.2547 9.00628 11.4188C9.17037 11.5829 9.39293 11.675 9.625 11.675H14.875C15.1071 11.675 15.3296 11.5829 15.4937 11.4188C15.6578 11.2547 15.75 11.0321 15.75 10.8C15.75 10.568 15.6578 10.3454 15.4937 10.1813C15.3296 10.0172 15.1071 9.92505 14.875 9.92505ZM14.875 6.42505H9.625C9.39293 6.42505 9.17037 6.51724 9.00628 6.68133C8.84219 6.84542 8.75 7.06798 8.75 7.30005C8.75 7.53211 8.84219 7.75467 9.00628 7.91877C9.17037 8.08286 9.39293 8.17505 9.625 8.17505H14.875C15.1071 8.17505 15.3296 8.08286 15.4937 7.91877C15.6578 7.75467 15.75 7.53211 15.75 7.30005C15.75 7.06798 15.6578 6.84542 15.4937 6.68133C15.3296 6.51724 15.1071 6.42505 14.875 6.42505ZM16.625 2.05005H4.375C3.67881 2.05005 3.01113 2.32661 2.51884 2.81889C2.02656 3.31118 1.75 3.97886 1.75 4.67505V13.425C1.75 14.1212 2.02656 14.7889 2.51884 15.2812C3.01113 15.7735 3.67881 16.05 4.375 16.05H14.5162L17.7537 19.2963C17.8355 19.3774 17.9325 19.4416 18.0391 19.4851C18.1457 19.5286 18.2598 19.5507 18.375 19.55C18.4898 19.553 18.6037 19.529 18.7075 19.48C18.8673 19.4144 19.0041 19.3029 19.1006 19.1597C19.1972 19.0164 19.2491 18.8478 19.25 18.675V4.67505C19.25 3.97886 18.9734 3.31118 18.4812 2.81889C17.9889 2.32661 17.3212 2.05005 16.625 2.05005ZM17.5 16.5663L15.4962 14.5538C15.4145 14.4727 15.3175 14.4085 15.2109 14.365C15.1043 14.3215 14.9902 14.2994 14.875 14.3H4.375C4.14294 14.3 3.92038 14.2079 3.75628 14.0438C3.59219 13.8797 3.5 13.6571 3.5 13.425V4.67505C3.5 4.44298 3.59219 4.22042 3.75628 4.05633C3.92038 3.89224 4.14294 3.80005 4.375 3.80005H16.625C16.8571 3.80005 17.0796 3.89224 17.2437 4.05633C17.4078 4.22042 17.5 4.44298 17.5 4.67505V16.5663Z" fill="#172F58"/>
</g>
</svg>
