
        <svg xmlns="http://www.w3.org/2000/svg" xmlns:xlink="http://www.w3.org/1999/xlink" version="1.1" width="3139.0082708585264" 
        height="628.1536672555885" viewBox="0 0 3139.0082708585264 628.1536672555885">
			
			<g transform="scale(6.950413542926328) translate(10, 10)">
				<defs id="SvgjsDefs1725"></defs><g id="SvgjsG1726" featureKey="nameLeftFeature-0" transform="matrix(2.0781982675887223,0,0,2.0781982675887223,-1.293034672738134,7.094981543403117)" fill="#f6f6f6"><path d="M6.6816 13.170200000000001 c2.7842 0.14119 4.279 1.1995 4.279 3.1658 c0 2.3842 -1.9048 3.6642 -5.1014 3.6642 l-5.0792 0 c-0.093008 0 -0.15781 -0.064804 -0.15781 -0.15801 c0 -0.089004 0.064804 -0.15381 0.15781 -0.15381 l0.51801 0 c0.2972 0 0.48202 -0.229 0.48202 -0.478 l0 -11.601 c0 -0.249 -0.1848 -0.478 -0.48202 -0.478 l-0.51801 0 c-0.093008 0 -0.15781 -0.064804 -0.15781 -0.15381 c0 -0.093204 0.064804 -0.15801 0.15781 -0.15801 l4.6676 0 c2.4724 0 4.6544 0.8428 4.6544 3.198 c0 1.5352 -1.1062 2.8332 -3.4204 3.1522 z M3.4854 7.609999999999999 l0.00019531 5.4886 l1.8718 0 c1.6 0 2.9392 -1.2642 2.9392 -3.0138 c0 -1.664 -0.8332 -2.9488 -2.965 -2.9526 l-1.3724 0 c-0.2902 0 -0.47378 0.2322 -0.47378 0.47782 z M5.7326 19.68866 c2.34 0 3.4192 -1.4684 3.4192 -3.3402 c0 -1.7282 -1.1772 -2.9302 -3.4192 -2.9302 l-2.2462 0 l0 5.7924 c0 0.249 0.1848 0.478 0.48202 0.478 l1.7642 0 z M24.114 6.82 c0.093204 0 0.15809 0.064844 0.15809 0.15385 c0 0.093008 -0.064804 0.15781 -0.15801 0.15781 l-0.51801 0 c-0.2972 0 -0.48202 0.229 -0.48202 0.478 l0 7.6876 c0 3.5856 -2.1406 4.8318 -4.6296 4.8318 c-2.0366 0 -4.7248 -0.878 -4.7248 -4.8952 l0 -7.6242 c0 -0.249 -0.1848 -0.478 -0.48202 -0.478 l-0.51801 0 c-0.093008 0 -0.15781 -0.064804 -0.15781 -0.15381 c0 -0.093204 0.064804 -0.15801 0.15781 -0.15801 l3.7028 0 c0.093008 0 0.15781 0.064804 0.15781 0.15801 c0 0.089004 -0.064804 0.15381 -0.15781 0.15381 l-0.51801 0 c-0.2972 0 -0.48202 0.229 -0.48202 0.478 l0 7.9076 c0 3.1476 1.5538 4.1496 3.4386 4.1496 c2.0592 0 3.8682 -1.1882 3.8682 -4.324 l0 -7.7332 c0 -0.249 -0.1848 -0.478 -0.48202 -0.478 l-0.51801 0 c-0.093008 0 -0.15781 -0.064804 -0.15781 -0.15781 c0 -0.089004 0.064804 -0.15381 0.15781 -0.15381 l2.3448 0 z M30.1496 6.82 c4.167 0 7.3572 1.6604 7.3572 6.5004 c0 3.8 -2.831 6.68 -7.358 6.68 l-4.4688 0 c-0.093008 0 -0.15781 -0.064804 -0.15781 -0.15801 c0 -0.089004 0.064804 -0.15381 0.15781 -0.15381 l0.51801 0 c0.2906 0 0.48122 -0.219 0.48122 -0.4618 l0 -11.631 c0 -0.2436 -0.1898 -0.4636 -0.48122 -0.4636 l-0.51801 0 c-0.093008 0 -0.15781 -0.064804 -0.15781 -0.15381 c0 -0.093204 0.064804 -0.15801 0.15781 -0.15801 l4.4696 0 z M30.148799999999998 19.68864 c2.8572 0 5.5498 -2.2286 5.5498 -6.3686 c0 -4.18 -2.4718 -6.1882 -5.549 -6.1882 l-1.2856 0 c-0.2906 0 -0.48122 0.219 -0.48122 0.4618 l0 11.631 c0 0.2436 0.1898 0.4636 0.48122 0.4636 l1.2848 0 z M50.760000000000005 18.9262 c-1.4724 0.7772 -3.1086 1.2027 -4.5714 1.2027 c-3.627 0 -6.4918 -2.3932 -6.4918 -6.709 c0 -4.629 3.2076 -6.729 6.3538 -6.729 c2.5008 0 4.6276 1.342 4.6276 3.2296 c0 0.947 -0.5104 1.3484 -0.99658 1.3484 c-0.458 0 -0.89602 -0.333 -0.89602 -0.8834 c0 -0.7172 0.8442 -0.87442 0.8442 -1.4468 c0 -0.9544 -1.5842 -1.8874 -3.365 -1.8874 c-2.1972 0 -4.7592 1.4744 -4.7592 6.3688 c0 4.1386 2.138 6.3234 4.9904 6.3234 c0.793 0 1.6654 -0.171 2.5612 -0.51718 l0 -4.2392 c0 -0.249 -0.1848 -0.478 -0.48202 -0.478 l-1.3938 0 c-0.093008 0 -0.15781 -0.064804 -0.15781 -0.15381 c0 -0.093204 0.064804 -0.15801 0.15781 -0.15801 l3.5786 0 l0 4.729 z M62.109 16.3572 c0.089004 0 0.154 0.065234 0.154 0.15844 l0 3.4848 l-9.002 0 c-0.093008 0 -0.15781 -0.064804 -0.15781 -0.15801 c0 -0.089004 0.064804 -0.15381 0.15781 -0.15381 l0.51801 0 c0.2906 0 0.48122 -0.219 0.48122 -0.4618 l0 -11.631 c0 -0.2436 -0.1898 -0.4636 -0.48122 -0.4636 l-0.51801 0 c-0.093008 0 -0.15781 -0.064804 -0.15781 -0.15381 c0 -0.093204 0.064804 -0.15801 0.15781 -0.15801 l8.9234 0 l0 3.4848 c0 0.093204 -0.064804 0.15801 -0.15781 0.15801 c-0.089004 0 -0.15381 -0.064804 -0.15381 -0.15801 l0 -0.80961 c0 -1.38 -0.82 -2.3634 -2.46 -2.3634 l-2.9678 0 c-0.2906 0 -0.48122 0.2178 -0.48122 0.4618 l0 5.3726 l1.5878 0 c1.6304 0 1.811 -0.5676 1.811 -1.4958 l0 -0.18279 c0 -0.089004 0.069004 -0.15801 0.15801 -0.15801 s0.15801 0.069004 0.15801 0.15801 l0 3.6772 c0 0.089004 -0.069004 0.15801 -0.15801 0.15801 s-0.15801 -0.064804 -0.15801 -0.17041 l0 -0.19859 c0 -0.8918 -0.1724 -1.4676 -1.811 -1.4676 l-1.5878 0 l0 5.9386 c0 0.2444 0.1898 0.4634 0.48122 0.4634 l3.0462 0 c1.64 0 2.46 -0.9834 2.46 -2.3634 l0 -0.80961 c0 -0.093204 0.064804 -0.15801 0.15781 -0.15801 z M74.42200000000001 6.82 l-0.00019531 3.4846 c0 0.093204 -0.064804 0.15801 -0.15801 0.15801 c-0.089004 0 -0.15381 -0.064804 -0.15381 -0.15801 l0 -0.80961 c0 -1.38 -0.82 -2.3634 -2.46 -2.3634 l-1.007 0 c-0.2906 0 -0.48122 0.219 -0.48122 0.4618 l0 11.631 c0 0.2436 0.1898 0.4636 0.48122 0.4636 l0.51801 0 c0.093204 0 0.15801 0.064804 0.15801 0.15381 c0 0.093204 -0.064804 0.15801 -0.15801 0.15801 l-3.702 0 c-0.093008 0 -0.15781 -0.064804 -0.15781 -0.15801 c0 -0.089004 0.064804 -0.15381 0.15781 -0.15381 l0.51801 0 c0.2906 0 0.48122 -0.2178 0.48122 -0.4618 l0 -11.631 c0 -0.2444 -0.1898 -0.4634 -0.48122 -0.4634 l-0.689 0 c-1.7986 0 -2.7772 0.8248 -2.7772 2.6806 l0 0.4924 c0 0.093204 -0.064804 0.15801 -0.15781 0.15801 c-0.089004 0 -0.15381 -0.064804 -0.15381 -0.15801 l0 -3.4848 l10.223 0 z"></path></g><g id="SvgjsG1727" featureKey="inlineSymbolFeature-0" transform="matrix(0.7677603746488918,0,0,0.7677603746488918,173,-0.00031059039511450466)" fill="#f6f6f6"><g xmlns="http://www.w3.org/2000/svg"><path fill="#f6f6f6" d="M41.667,48.609c-0.768,0-1.389,0.621-1.389,1.389v15.278c0,0.768,0.621,1.389,1.389,1.389   c0.768,0,1.389-0.621,1.389-1.389V49.998C43.056,49.23,42.435,48.609,41.667,48.609z"></path><path fill="#f6f6f6" d="M86.111,47.221H47.222c-0.768,0-1.389,0.621-1.389,1.389s0.621,1.389,1.389,1.389h38.889   c0.768,0,1.389-0.621,1.389-1.389S86.879,47.221,86.111,47.221z"></path><path fill="#f6f6f6" d="M34.193,50.103l-23.611,9.723c-0.709,0.292-1.047,1.104-0.755,1.813c0.221,0.536,0.739,0.859,1.285,0.859   c0.176,0,0.355-0.033,0.529-0.104l23.611-9.722c0.709-0.292,1.047-1.104,0.756-1.813C35.715,50.149,34.905,49.815,34.193,50.103z"></path><path fill="#f6f6f6" d="M99.665,24.75L78.832,0.483c-0.243-0.284-0.591-0.456-0.962-0.481c-0.372-0.017-0.738,0.102-1.018,0.35   l-30.75,27.425h-4.437c-0.375,0-0.749,0.076-1.094,0.225L1.683,44.668C0.662,45.105,0,46.11,0,47.221v41.667   c0,0.933,0.469,1.805,1.249,2.319c0.46,0.304,0.993,0.458,1.529,0.458c0.372,0,0.743-0.074,1.095-0.225l38.364-16.442h52.208   c1.534,0,2.777-1.243,2.777-2.777V33.332h-5.176l7.486-6.638C100.101,26.191,100.158,25.325,99.665,24.75z M91.667,69.443h-50   c-0.375,0-0.749,0.075-1.094,0.225L5.556,84.675V49.052L37.69,35.281L25.464,46.185c-0.237,0.211-0.378,0.491-0.433,0.785   l-14.446,5.909c-0.709,0.291-1.05,1.102-0.76,1.812c0.22,0.537,0.739,0.862,1.286,0.862c0.175,0,0.354-0.032,0.526-0.103   l30.302-12.397h44.172c0.768,0,1.389-0.621,1.389-1.389c0-0.768-0.621-1.389-1.389-1.389h-1.896l7.452-6.608V69.443z    M89.665,30.554l-1.721-1.689c-2.576,1.654-6.049,1.374-8.325-0.857l2.092-2.129c1.088,1.067,2.669,1.328,4.003,0.795l-5.213-5.12   c-2.578,1.652-6.053,1.373-8.33-0.863c-2.274-2.235-2.612-5.702-1.007-8.311l-1.72-1.688l2.092-2.128l1.718,1.69   c2.579-1.653,6.054-1.374,8.332,0.863l-2.091,2.13c-1.091-1.07-2.675-1.334-4.01-0.801l5.225,5.131   c2.577-1.65,6.047-1.381,8.318,0.853c2.274,2.234,2.612,5.701,1.008,8.308l1.72,1.688L89.665,30.554z"></path><path fill="#f6f6f6" d="M82.939,19.767l4.864,4.78c0.51-1.343,0.223-2.92-0.865-3.989C85.852,19.491,84.271,19.233,82.939,19.767z"></path><path fill="#f6f6f6" d="M74.262,18.562c1.091,1.071,2.675,1.332,4.009,0.801l-4.877-4.791   C72.884,15.915,73.173,17.493,74.262,18.562z"></path></g></g><g id="SvgjsG1728" featureKey="nameRightFeature-0" transform="matrix(2.0788323506602424,0,0,2.0788323506602424,259.0607914556171,7.082219038003474)" fill="#f6f6f6"><path d="M11.3216 13.170200000000001 c2.7842 0.14119 4.279 1.1995 4.279 3.1658 c0 2.3842 -1.9048 3.6642 -5.1014 3.6642 l-5.0792 0 c-0.093008 0 -0.15781 -0.064804 -0.15781 -0.15801 c0 -0.089004 0.064804 -0.15381 0.15781 -0.15381 l0.51801 0 c0.2972 0 0.48202 -0.229 0.48202 -0.478 l0 -11.601 c0 -0.249 -0.1848 -0.478 -0.48202 -0.478 l-0.51801 0 c-0.093008 0 -0.15781 -0.064804 -0.15781 -0.15381 c0 -0.093204 0.064804 -0.15801 0.15781 -0.15801 l4.6676 0 c2.4724 0 4.6544 0.8428 4.6544 3.198 c0 1.5352 -1.1062 2.8332 -3.4204 3.1522 z M8.125399999999999 7.609999999999999 l0.00019531 5.4886 l1.8718 0 c1.6 0 2.9392 -1.2642 2.9392 -3.0138 c0 -1.664 -0.8332 -2.9488 -2.965 -2.9526 l-1.3724 0 c-0.2902 0 -0.47378 0.2322 -0.47378 0.47782 z M10.372599999999998 19.68866 c2.34 0 3.4192 -1.4684 3.4192 -3.3402 c0 -1.7282 -1.1772 -2.9302 -3.4192 -2.9302 l-2.2462 0 l0 5.7924 c0 0.249 0.1848 0.478 0.48202 0.478 l1.7642 0 z M23.7144 6.695 c3.7924 0 5.998 2.8256 5.998 6.6456 s-2.2056 6.7882 -5.998 6.7882 c-3.7966 0 -5.998 -2.9682 -5.998 -6.7882 s2.2014 -6.6456 5.998 -6.6456 z M23.7144 19.78558 c3.0958 0 4.1888 -3.0848 4.1888 -6.4448 s-1.093 -6.302 -4.1888 -6.302 s-4.1888 2.942 -4.1888 6.302 s1.093 6.4448 4.1888 6.4448 z M42.541 6.82 c0.093204 0 0.15803 0.064454 0.15803 0.15346 c0 0.093008 -0.064804 0.15781 -0.15781 0.15781 l-0.51801 0 c-0.2972 0 -0.48202 0.229 -0.48202 0.478 l0 12.39 l-0.7918 0 l-7.8248 -11.482 l0 10.692 c0 0.249 0.1848 0.478 0.48202 0.478 l0.51801 0 c0.093204 0 0.15801 0.064804 0.15801 0.15801 c0 0.089004 -0.064804 0.15381 -0.15801 0.15381 l-2.3448 0 c-0.093008 0 -0.15781 -0.064804 -0.15781 -0.15381 c0 -0.093204 0.064804 -0.15801 0.15781 -0.15801 l0.51801 0 c0.2972 0 0.48202 -0.229 0.48202 -0.478 l0 -11.601 c0 -0.249 -0.1848 -0.478 -0.48202 -0.478 l-0.51801 0 c-0.093008 0 -0.15781 -0.064804 -0.15781 -0.15781 c0 -0.089004 0.064804 -0.15381 0.15781 -0.15381 l2.1806 0 l7.4358 10.908 l0 -10.118 c0 -0.249 -0.1848 -0.478 -0.48202 -0.478 l-0.51801 0 c-0.093204 0 -0.15801 -0.064804 -0.15801 -0.15781 c0 -0.089004 0.064804 -0.15381 0.15801 -0.15381 l2.3448 0 z M48.5696 6.82 c4.167 0 7.3572 1.6604 7.3572 6.5004 c0 3.8 -2.831 6.68 -7.358 6.68 l-4.4688 0 c-0.093008 0 -0.15781 -0.064804 -0.15781 -0.15801 c0 -0.089004 0.064804 -0.15381 0.15781 -0.15381 l0.51801 0 c0.2906 0 0.48122 -0.219 0.48122 -0.4618 l0 -11.631 c0 -0.2436 -0.1898 -0.4636 -0.48122 -0.4636 l-0.51801 0 c-0.093008 0 -0.15781 -0.064804 -0.15781 -0.15381 c0 -0.093204 0.064804 -0.15801 0.15781 -0.15801 l4.4696 0 z M48.5688 19.68864 c2.8572 0 5.5498 -2.2286 5.5498 -6.3686 c0 -4.18 -2.4718 -6.1882 -5.549 -6.1882 l-1.2856 0 c-0.2906 0 -0.48122 0.219 -0.48122 0.4618 l0 11.631 c0 0.2436 0.1898 0.4636 0.48122 0.4636 l1.2848 0 z M69.944 19.6882 c0.093204 0 0.15762 0.06461 0.15762 0.15361 c0 0.093204 -0.064804 0.15801 -0.15781 0.15801 l-3.702 0 c-0.093008 0 -0.15781 -0.064804 -0.15781 -0.15801 c0 -0.089004 0.064804 -0.15381 0.15801 -0.15381 l0.51801 0 c0.2906 0 0.48122 -0.2178 0.48122 -0.4618 l0 -6.0362 l-6.7378 0 l0 6.0344 c0 0.2436 0.1898 0.4636 0.48122 0.4636 l0.51801 0 c0.093008 0 0.15781 0.064804 0.15781 0.15381 c0 0.093204 -0.064804 0.15801 -0.15781 0.15801 l-3.702 0 c-0.093008 0 -0.15781 -0.064804 -0.15781 -0.15801 c0 -0.089004 0.064804 -0.15381 0.15781 -0.15381 l0.51801 0 c0.2906 0 0.48122 -0.2178 0.48122 -0.4618 l0 -11.631 c0 -0.2444 -0.1898 -0.4634 -0.48122 -0.4634 l-0.51801 0 c-0.093008 0 -0.15781 -0.064804 -0.15781 -0.15381 c0 -0.093204 0.064804 -0.15801 0.15781 -0.15801 l3.702 0 c0.093008 0 0.15781 0.064804 0.15781 0.15801 c0 0.089004 -0.064804 0.15381 -0.15781 0.15381 l-0.51801 0 c-0.2906 0 -0.48122 0.219 -0.48122 0.4618 l0 5.285 l6.7378 0 l0 -5.2834 c0 -0.2444 -0.1898 -0.4634 -0.48122 -0.4634 l-0.51801 0 c-0.093008 0 -0.15781 -0.064804 -0.15781 -0.15381 c0 -0.093204 0.064804 -0.15801 0.15781 -0.15801 l3.702 0 c0.093008 0 0.15781 0.064804 0.15781 0.15801 c0 0.089004 -0.064804 0.15381 -0.15781 0.15381 l-0.51801 0 c-0.2906 0 -0.48122 0.219 -0.48122 0.4618 l0 11.631 c0 0.2436 0.1898 0.4636 0.48122 0.4636 l0.51801 0 z M82.854 6.82 c0.093204 0 0.15809 0.064844 0.15809 0.15385 c0 0.093008 -0.064804 0.15781 -0.15801 0.15781 l-0.51801 0 c-0.2972 0 -0.48202 0.229 -0.48202 0.478 l0 7.6876 c0 3.5856 -2.1406 4.8318 -4.6296 4.8318 c-2.0366 0 -4.7248 -0.878 -4.7248 -4.8952 l0 -7.6242 c0 -0.249 -0.1848 -0.478 -0.48202 -0.478 l-0.51801 0 c-0.093008 0 -0.15781 -0.064804 -0.15781 -0.15381 c0 -0.093204 0.064804 -0.15801 0.15781 -0.15801 l3.7028 0 c0.093008 0 0.15781 0.064804 0.15781 0.15801 c0 0.089004 -0.064804 0.15381 -0.15781 0.15381 l-0.51801 0 c-0.2972 0 -0.48202 0.229 -0.48202 0.478 l0 7.9076 c0 3.1476 1.5538 4.1496 3.4386 4.1496 c2.0592 0 3.8682 -1.1882 3.8682 -4.324 l0 -7.7332 c0 -0.249 -0.1848 -0.478 -0.48202 -0.478 l-0.51801 0 c-0.093008 0 -0.15781 -0.064804 -0.15781 -0.15781 c0 -0.089004 0.064804 -0.15381 0.15781 -0.15381 l2.3448 0 z"></path></g>
			</g>
		</svg>
	