<svg width="20" height="20" viewBox="0 0 20 20" fill="none" xmlns="http://www.w3.org/2000/svg">
<g id="Exclamation Mark / 24 / Outline">
<path id="Vector" d="M9.99984 5.83317C9.77883 5.83317 9.56687 5.92097 9.41058 6.07725C9.2543 6.23353 9.16651 6.44549 9.16651 6.6665V9.99984C9.16651 10.2208 9.2543 10.4328 9.41058 10.5891C9.56687 10.7454 9.77883 10.8332 9.99984 10.8332C10.2209 10.8332 10.4328 10.7454 10.5891 10.5891C10.7454 10.4328 10.8332 10.2208 10.8332 9.99984V6.6665C10.8332 6.44549 10.7454 6.23353 10.5891 6.07725C10.4328 5.92097 10.2209 5.83317 9.99984 5.83317ZM10.7665 13.0165C10.7483 12.9634 10.723 12.913 10.6915 12.8665L10.5915 12.7415C10.4743 12.6259 10.3255 12.5475 10.1639 12.5164C10.0022 12.4853 9.83493 12.5027 9.68317 12.5665C9.58219 12.6087 9.48917 12.6679 9.40817 12.7415C9.33094 12.8194 9.26984 12.9117 9.22836 13.0132C9.18689 13.1148 9.16587 13.2235 9.16651 13.3332C9.16782 13.4421 9.19047 13.5497 9.23317 13.6498C9.2706 13.7532 9.33031 13.8472 9.40808 13.9249C9.48584 14.0027 9.57976 14.0624 9.68317 14.0998C9.78292 14.1439 9.89078 14.1667 9.99984 14.1667C10.1089 14.1667 10.2168 14.1439 10.3165 14.0998C10.4199 14.0624 10.5138 14.0027 10.5916 13.9249C10.6694 13.8472 10.7291 13.7532 10.7665 13.6498C10.8092 13.5497 10.8319 13.4421 10.8332 13.3332C10.8373 13.2777 10.8373 13.222 10.8332 13.1665C10.8188 13.1134 10.7963 13.0628 10.7665 13.0165ZM9.99984 1.6665C8.35166 1.6665 6.7405 2.15525 5.37009 3.07092C3.99968 3.9866 2.93158 5.28809 2.30084 6.81081C1.67011 8.33353 1.50509 10.0091 1.82663 11.6256C2.14817 13.2421 2.94185 14.727 4.10728 15.8924C5.27272 17.0578 6.75758 17.8515 8.37409 18.173C9.9906 18.4946 11.6662 18.3296 13.1889 17.6988C14.7116 17.0681 16.0131 16 16.9288 14.6296C17.8444 13.2592 18.3332 11.648 18.3332 9.99984C18.3332 8.90549 18.1176 7.82185 17.6988 6.81081C17.28 5.79976 16.6662 4.8811 15.8924 4.10728C15.1186 3.33346 14.1999 2.71963 13.1889 2.30084C12.1778 1.88205 11.0942 1.6665 9.99984 1.6665ZM9.99984 16.6665C8.6813 16.6665 7.39237 16.2755 6.29604 15.543C5.19971 14.8104 4.34523 13.7692 3.84064 12.5511C3.33606 11.3329 3.20404 9.99244 3.46127 8.69923C3.71851 7.40603 4.35345 6.21814 5.2858 5.28579C6.21815 4.35344 7.40603 3.7185 8.69924 3.46127C9.99244 3.20403 11.3329 3.33606 12.5511 3.84064C13.7692 4.34522 14.8104 5.19971 15.543 6.29604C16.2755 7.39236 16.6665 8.68129 16.6665 9.99984C16.6665 11.7679 15.9641 13.4636 14.7139 14.7139C13.4636 15.9641 11.768 16.6665 9.99984 16.6665Z" fill="#172F58"/>
</g>
</svg>
