<svg width="20" height="20" viewBox="0 0 20 20" fill="none" xmlns="http://www.w3.org/2000/svg">
<circle opacity="0.16" cx="10" cy="10" r="10" fill="#4CC0AC"/>
<path d="M14.9997 9.99978C14.9997 9.69295 14.751 9.44422 14.4442 9.44422C14.1373 9.44422 13.8886 9.69295 13.8886 9.99978V11.2776L11.5331 8.49978C11.3575 8.29457 11.0598 8.24534 10.8275 8.38311L8.45528 9.83311L5.98306 6.86645C5.85603 6.71362 5.65712 6.64016 5.46125 6.67376C5.26538 6.70735 5.10231 6.84289 5.03347 7.02931C4.96463 7.21574 5.00048 7.42473 5.1275 7.57756L7.90528 10.9109C8.08001 11.121 8.38155 11.1728 8.61639 11.0331L10.9942 9.60534L13.2164 12.222H11.6664C11.3596 12.222 11.1108 12.4707 11.1108 12.7776C11.1108 13.0844 11.3596 13.3331 11.6664 13.3331H14.4442C14.5125 13.3314 14.5801 13.3183 14.6442 13.2942L14.7219 13.2498C14.7509 13.2352 14.7788 13.2185 14.8053 13.1998C14.8357 13.1723 14.8619 13.1405 14.8831 13.1053C14.9017 13.0807 14.9184 13.0547 14.9331 13.0276C14.9467 12.9975 14.956 12.9657 14.9608 12.9331C14.9834 12.8841 14.9965 12.8314 14.9997 12.7776V9.99978Z" fill="#4CC0AC"/>
</svg>
