<svg width="20" height="20" viewBox="0 0 20 20" fill="none" xmlns="http://www.w3.org/2000/svg">
<circle opacity="0.16" cx="10" cy="10" r="10" fill="#FF4842"/>
<path d="M14.9997 9.99976C14.9997 10.3066 14.751 10.5553 14.4442 10.5553C14.1373 10.5553 13.8886 10.3066 13.8886 9.99976V8.72199L11.5331 11.4998C11.3575 11.705 11.0598 11.7542 10.8275 11.6164L8.45528 10.1664L5.98306 13.1331C5.85603 13.2859 5.65712 13.3594 5.46125 13.3258C5.26538 13.2922 5.10231 13.1567 5.03347 12.9702C4.96463 12.7838 5.00048 12.5748 5.1275 12.422L7.90528 9.08865C8.08001 8.87858 8.38155 8.82675 8.61639 8.96643L10.9942 10.3942L13.2164 7.77754H11.6664C11.3596 7.77754 11.1108 7.52881 11.1108 7.22198C11.1108 6.91516 11.3596 6.66643 11.6664 6.66643H14.4442C14.5125 6.66811 14.5801 6.68126 14.6442 6.70532L14.7219 6.74976C14.7509 6.76436 14.7788 6.78107 14.8053 6.79976C14.8357 6.82725 14.8619 6.85907 14.8831 6.89421C14.9017 6.91883 14.9184 6.94483 14.9331 6.97199C14.9467 7.00203 14.956 7.03381 14.9608 7.06643C14.9834 7.11541 14.9965 7.16817 14.9997 7.22198V9.99976Z" fill="#FF4842"/>
</svg>
