<svg width="24" height="24" viewBox="0 0 24 24" fill="none" xmlns="http://www.w3.org/2000/svg">
<g id="system-outline-140-help-center 1" clip-path="url(#clip0_79_190)">
<g id="Clip path group">
<mask id="mask0_79_190" style="mask-type:luminance" maskUnits="userSpaceOnUse" x="0" y="0" width="24" height="24">
<g id="d">
<path id="Vector" d="M0 0H24V24H0V0Z" fill="white"/>
</g>
</mask>
<g mask="url(#mask0_79_190)">
<g id="Group">
<g id="Clip path group_2">
<mask id="mask1_79_190" style="mask-type:luminance" maskUnits="userSpaceOnUse" x="0" y="0" width="24" height="24">
<g id="f">
<path id="Vector_2" d="M0 0H24V24H0V0Z" fill="white"/>
</g>
</mask>
<g mask="url(#mask1_79_190)">
<g id="Group_2">
<g id="Group_3">
<path id="Vector_3" d="M12.0003 14.5004C11.5854 14.5004 11.2491 14.165 11.2491 13.7501V13.7483C11.2491 12.5981 11.8677 11.5226 12.904 10.8714C13.4621 10.5206 13.9204 9.74923 13.6859 8.81655C13.5359 8.22029 13.0489 7.71715 12.4739 7.56456C11.9306 7.42032 11.3931 7.5241 10.9607 7.85683C10.51 8.20354 10.2515 8.73567 10.2515 9.31675C10.2515 9.73162 9.91518 10.068 9.50027 10.068C9.08536 10.068 8.74902 9.73162 8.74902 9.31675C8.74902 8.26555 9.2213 7.29936 10.0446 6.666C10.8434 6.05155 11.8692 5.84981 12.8592 6.11242C13.963 6.40531 14.8594 7.32293 15.1429 8.45016C15.5051 9.89055 14.9266 11.3748 13.7033 12.1435C13.1073 12.518 12.7515 13.118 12.7515 13.7483C12.7515 14.1631 12.4152 14.5004 12.0003 14.5004ZM12.0001 17.9843C11.9684 17.9843 11.9358 17.9823 11.9036 17.9795C11.8714 17.9761 11.8393 17.9713 11.8081 17.9651C11.7451 17.9519 11.6834 17.9331 11.6238 17.9089C11.5945 17.8964 11.5652 17.8825 11.5369 17.8676C11.5084 17.8525 11.4807 17.8361 11.4539 17.8182C11.4271 17.8003 11.4012 17.7812 11.3761 17.7611C11.3511 17.7404 11.3272 17.7188 11.3046 17.6958C11.2816 17.6732 11.26 17.6493 11.2393 17.6243C11.1987 17.5742 11.1631 17.5203 11.1328 17.4635C11.1179 17.4351 11.104 17.4059 11.0914 17.3766C11.0793 17.3469 11.0686 17.3166 11.0593 17.2859C11.0499 17.2551 11.0419 17.2238 11.0353 17.1923C11.029 17.1607 11.0242 17.1288 11.0209 17.0967C11.018 17.0651 11.0161 17.0325 11.0161 17.0003C11.0161 16.9681 11.018 16.9355 11.0209 16.9033C11.0243 16.8717 11.0291 16.8395 11.0353 16.8078C11.0421 16.7766 11.0498 16.7454 11.0593 16.7147C11.0684 16.6839 11.0794 16.6532 11.0914 16.6239C11.104 16.5942 11.1179 16.5649 11.1328 16.5366C11.1477 16.5083 11.1644 16.4804 11.1822 16.454C11.2178 16.4001 11.2588 16.3499 11.3046 16.3043C11.3272 16.2817 11.3511 16.2596 11.3761 16.2395C11.4011 16.2193 11.4274 16.1996 11.4539 16.1819C11.4808 16.1641 11.5086 16.1478 11.5369 16.1324C11.5652 16.1175 11.5945 16.1036 11.6238 16.0916C11.6536 16.0791 11.6838 16.0681 11.7145 16.059C11.7452 16.0499 11.7769 16.0417 11.8081 16.0355C11.8393 16.0292 11.8714 16.0244 11.9036 16.0211C11.968 16.0143 12.0328 16.0143 12.0971 16.0211C12.1288 16.0244 12.1609 16.0292 12.1926 16.0355C12.2238 16.0417 12.2554 16.0499 12.2862 16.059C12.3164 16.0681 12.3472 16.0791 12.3764 16.0916C12.4062 16.1036 12.4354 16.1175 12.4638 16.1324C12.4921 16.1478 12.52 16.1641 12.5464 16.1819C12.5732 16.1996 12.5996 16.2193 12.6241 16.2395C12.6744 16.2802 12.7202 16.326 12.7609 16.3763C12.7816 16.4013 12.8008 16.4271 12.8185 16.454C12.8363 16.4804 12.8526 16.5083 12.868 16.5366C12.8828 16.5649 12.8968 16.5942 12.9088 16.6239C12.9212 16.6532 12.9323 16.6839 12.9413 16.7147C12.9509 16.7449 12.9587 16.7766 12.9649 16.8078C12.9717 16.8395 12.9764 16.8717 12.9793 16.9033C12.9827 16.9355 12.9846 16.9681 12.9846 17.0003C12.9846 17.0325 12.9827 17.0651 12.9793 17.0967C12.9764 17.1289 12.9717 17.1611 12.9649 17.1923C12.9588 17.2239 12.9509 17.2551 12.9413 17.2859C12.9323 17.3166 12.9212 17.3468 12.9088 17.3766C12.8968 17.4059 12.8828 17.4351 12.868 17.4635C12.8526 17.4918 12.8363 17.5196 12.8185 17.5465C12.8008 17.5734 12.7816 17.5993 12.7609 17.6243C12.7408 17.6493 12.7187 17.6732 12.6961 17.6958C12.6736 17.7188 12.6491 17.7404 12.6241 17.7611C12.5996 17.7812 12.5732 17.8005 12.5464 17.8182C12.52 17.836 12.4921 17.8527 12.4638 17.8676C12.4354 17.8825 12.4062 17.8964 12.3764 17.9089C12.3472 17.9209 12.3164 17.9319 12.2862 17.9411C12.2554 17.9507 12.2238 17.9583 12.1926 17.9651C12.1609 17.9713 12.1288 17.9761 12.0971 17.9795C12.0649 17.9823 12.0323 17.9843 12.0001 17.9843Z" fill="white"/>
<path id="Vector_4" d="M12.0004 22.0014C6.48563 22.0014 1.99902 17.5149 1.99902 12.0001C1.99902 6.48542 6.48563 1.99891 12.0004 1.99891C17.5151 1.99891 22.0016 6.48542 22.0016 12.0001C22.0016 17.5149 17.5151 22.0014 12.0004 22.0014ZM12.0003 3.50131C7.31402 3.50131 3.50147 7.31386 3.50147 12.0001C3.50147 16.6864 7.31402 20.499 12.0003 20.499C16.6866 20.499 20.4991 16.6864 20.4991 12.0001C20.4991 7.31386 16.6866 3.50131 12.0003 3.50131Z" fill="white"/>
</g>
</g>
</g>
</g>
</g>
</g>
</g>
</g>
<defs>
<clipPath id="clip0_79_190">
<rect width="24" height="24" fill="white"/>
</clipPath>
</defs>
</svg>
