<svg width="20" height="20" viewBox="0 0 20 20" fill="none" xmlns="http://www.w3.org/2000/svg">
<g id="reader / 24 / Outline">
<path id="Vector" d="M16.8168 8.4915C16.2174 8.38304 15.6092 8.33004 15.0001 8.33317C14.6501 8.33317 14.3084 8.33317 13.9668 8.39984C13.5414 7.83224 12.9985 7.36321 12.3751 7.02484C12.9106 6.44005 13.2078 5.67607 13.2084 4.88317C13.2084 4.03006 12.8695 3.21189 12.2663 2.60864C11.6631 2.0054 10.8449 1.6665 9.99178 1.6665C9.13866 1.6665 8.32049 2.0054 7.71725 2.60864C7.11401 3.21189 6.77511 4.03006 6.77511 4.88317C6.77572 5.67607 7.07299 6.44005 7.60844 7.02484C6.98877 7.36497 6.44671 7.8304 6.01678 8.3915C5.69178 8.33317 5.35011 8.33317 5.00011 8.33317C4.39046 8.33554 3.78233 8.39412 3.18344 8.50817C2.98931 8.54367 2.81408 8.64691 2.68894 8.79951C2.56381 8.95212 2.49689 9.14418 2.50011 9.3415V16.2165C2.49991 16.3389 2.52669 16.4599 2.57854 16.5708C2.63039 16.6817 2.70604 16.7798 2.80011 16.8582C2.89359 16.937 3.00326 16.9943 3.12136 17.026C3.23945 17.0576 3.36307 17.0629 3.48344 17.0415C3.98212 16.9329 4.48992 16.8715 5.00011 16.8582C6.61436 16.8564 8.19358 17.3287 9.54178 18.2165L9.65011 18.2582C9.76065 18.3061 9.87962 18.3316 10.0001 18.3332C10.0796 18.3322 10.1585 18.3181 10.2334 18.2915H10.2918L10.4001 18.2498C11.7611 17.3393 13.3626 16.8548 15.0001 16.8582C15.5092 16.8605 16.017 16.9108 16.5168 17.0082C16.6372 17.0296 16.7608 17.0243 16.8789 16.9926C16.997 16.9609 17.1066 16.9037 17.2001 16.8248C17.2942 16.7465 17.3698 16.6484 17.4217 16.5375C17.4735 16.4266 17.5003 16.3056 17.5001 16.1832V9.30817C17.4994 9.1137 17.4307 8.9256 17.3059 8.77646C17.1811 8.62731 17.0081 8.52651 16.8168 8.4915ZM10.0001 3.33317C10.3905 3.36185 10.7556 3.53717 11.022 3.82391C11.2884 4.11065 11.4365 4.48758 11.4365 4.879C11.4365 5.27043 11.2884 5.64736 11.022 5.9341C10.7556 6.22084 10.3905 6.39615 10.0001 6.42484C9.60974 6.39615 9.24467 6.22084 8.97823 5.9341C8.71178 5.64736 8.56369 5.27043 8.56369 4.879C8.56369 4.48758 8.71178 4.11065 8.97823 3.82391C9.24467 3.53717 9.60974 3.36185 10.0001 3.33317ZM9.16678 16.1082C7.86067 15.5044 6.439 15.1917 5.00011 15.1915C4.72511 15.1915 4.45011 15.1915 4.16678 15.2332V9.99984C4.86558 9.92166 5.57163 9.93567 6.26678 10.0415H6.35844C7.35144 10.224 8.30301 10.5854 9.16678 11.1082V16.1082ZM10.0001 9.6665C9.62955 9.45274 9.24539 9.26344 8.85011 9.09984H8.80011C8.52511 8.9915 8.25011 8.88317 7.96678 8.79984C8.54537 8.33931 9.26068 8.08427 10.0001 8.07484C10.7376 8.07951 11.4527 8.32863 12.0334 8.78317C11.326 9.00403 10.6443 9.30017 10.0001 9.6665ZM15.8334 15.2332C14.1223 15.0612 12.3963 15.3489 10.8334 16.0665V11.0665C11.6988 10.5572 12.6509 10.2125 13.6418 10.0498H13.8084C14.4784 9.9455 15.1591 9.9287 15.8334 9.99984V15.2332Z" fill="white"/>
</g>
</svg>
