<svg width="21" height="21" viewBox="0 0 21 21" fill="none" xmlns="http://www.w3.org/2000/svg">
<g id="star shape / 24 / Outline">
<path id="Vector" d="M18.4251 8.36977L18.4399 8.37192L18.4547 8.37318C18.527 8.37937 18.5959 8.4064 18.6532 8.451L18.9605 8.05657L18.6532 8.451C18.7056 8.49187 18.7462 8.54588 18.7708 8.60742C18.7844 8.67067 18.7814 8.73647 18.762 8.79839C18.7408 8.8661 18.7007 8.92639 18.6466 8.97226L18.6339 8.98301L18.6219 8.99459L15.0082 12.4946L14.8176 12.6792L14.8636 12.9404L15.7386 17.9104L15.7386 17.9105L15.7399 17.9173C15.7533 17.9876 15.7463 18.0603 15.7197 18.1267C15.6931 18.1932 15.6481 18.2506 15.5899 18.2923L15.5878 18.2938C15.5235 18.3403 15.446 18.3653 15.3666 18.365L15.3632 18.365C15.3088 18.3652 15.2553 18.3512 15.208 18.3245L15.2015 18.3209L15.1949 18.3174L10.7324 15.9724L10.5007 15.8506L10.2686 15.9717L5.7886 18.3079L5.78558 18.3095C5.724 18.3422 5.65453 18.357 5.58497 18.3524C5.51558 18.3477 5.44884 18.3239 5.39222 18.2835C5.33404 18.2419 5.289 18.1844 5.26242 18.118C5.23584 18.0515 5.22883 17.9788 5.24222 17.9085L5.24227 17.9085L5.24347 17.9017L6.11847 12.9317L6.16447 12.6704L5.9739 12.4858L2.3634 8.98898C2.31629 8.94123 2.28284 8.8817 2.26657 8.81659C2.25043 8.75204 2.25176 8.6844 2.27039 8.62058C2.29243 8.55575 2.33182 8.49816 2.38431 8.45409L2.06554 8.07438L2.38431 8.45409C2.438 8.40901 2.50325 8.37989 2.57266 8.37003L2.57266 8.37004L2.57532 8.36964L7.55407 7.63464L7.81323 7.59638L7.9293 7.36152L10.1605 2.84652L10.1606 2.84653L10.1623 2.84295C10.193 2.77955 10.241 2.72608 10.3006 2.68867C10.3603 2.65125 10.4294 2.63141 10.4998 2.63141C10.5702 2.63141 10.6393 2.65125 10.699 2.68866C10.7586 2.72608 10.8066 2.77955 10.8373 2.84295L10.8373 2.84296L10.8389 2.84618L13.0701 7.36993L13.1864 7.60559L13.4464 7.64352L18.4251 8.36977ZM2.5023 7.875C2.34035 7.89802 2.18811 7.96597 2.06283 8.07114C1.93755 8.17631 1.84426 8.31449 1.79355 8.47L2.5023 7.875ZM14.2162 12.3207L14.2215 12.3154L16.8465 9.69915L17.5545 8.99351L16.5652 8.85017L12.8815 8.31642L12.8815 8.31641L12.8787 8.31602C12.8179 8.30757 12.7602 8.28435 12.7105 8.24839C12.6608 8.21243 12.6207 8.16484 12.5937 8.10977L12.5934 8.10922L10.9484 4.76672L10.4881 3.83135L10.0468 4.77587L8.49173 8.1044C8.46475 8.15803 8.42527 8.20442 8.3766 8.23964C8.32691 8.2756 8.26916 8.29882 8.20841 8.30727L8.20841 8.30726L8.2056 8.30767L4.52185 8.84142L3.53465 8.98446L4.23999 9.68981L6.86499 12.3148L6.86495 12.3149L6.87093 12.3206C6.91491 12.3632 6.94781 12.4158 6.96677 12.474C6.98572 12.5322 6.99016 12.5941 6.97968 12.6544L6.97952 12.6553L6.34952 16.3216L6.17683 17.3266L7.0771 16.8477L10.3671 15.0977L10.3673 15.0976C10.4216 15.0687 10.4821 15.0536 10.5435 15.0536C10.605 15.0536 10.6655 15.0687 10.7198 15.0976L10.72 15.0977L14.01 16.8477L14.9103 17.3266L14.7376 16.3216L14.1076 12.6553L14.1074 12.6544C14.0969 12.5941 14.1014 12.5322 14.1203 12.474L13.6449 12.3191L14.1203 12.474C14.1393 12.4158 14.1722 12.3632 14.2162 12.3206L14.2162 12.3207Z" fill="#172F58" stroke="#172F58"/>
</g>
</svg>
